<?xml version="1.0" encoding="UTF-8"?>
<svg id="Calque_2" data-name="Calque 2" xmlns="http://www.w3.org/2000/svg" viewBox="0 0 177.93 208.42">
  <defs>
    <style>
      .cls-1 {
        fill: #39b54a;
      }
    </style>
  </defs>
  <g id="Calque_3" data-name="Calque 3">
    <path class="cls-1" d="M86.3,208.42c66.47-36.82,101.14-96.46,89.36-139.91-8.62-31.78-35.28-51.11-35.28-51.11C118.68,1.66,96.54,.29,91.66,.08,63.6-1.13,33.5,11.22,15.83,35.83,.56,57.09,.07,79.82,0,87.91c-.58,70.88,80.09,117.07,86.3,120.51Z"/>
    <path d="M108.44,80.78c-.55,1.24-1.09,2.47-1.64,3.7-8.42,19.1-16.84,38.2-25.26,57.3-1.11,2.52-2.2,5.06-3.36,7.55-.71,1.53-1.68,2.91-3.03,3.97-.99,.77-2.08,1.19-3.37,1.03-1.19-.15-1.9-.83-2.25-1.93-.41-1.28-.35-2.58-.26-3.9,.21-3.02,1.26-5.82,2.21-8.65,3.53-10.54,7.07-21.07,10.21-31.74,.59-2.01,1.04-4.06,1.54-6.09,.05-.21,0-.44,0-.66-.03-.02-.06-.04-.09-.05-.17,.17-.38,.32-.52,.51-.94,1.33-1.92,2.63-2.79,4.01-3.59,5.74-7.14,11.52-10.72,17.27-.4,.65-.81,1.3-1.32,1.87-1.91,2.14-4.81,2.08-6.74-.08-1.02-1.15-1.22-2.47-.98-3.95,.71-4.42,2.04-8.67,3.44-12.91,1.8-5.45,4.1-10.69,6.42-15.94,3.1-7.02,6.17-14.05,9.26-21.08,.04-.1,.08-.21,.14-.38-.18,0-.31,0-.44,0-10.5,.15-20.99,.29-31.49,.44-1.28,.02-2.54-.07-3.75-.53-.85-.32-1.61-.77-2.14-1.53-.67-.94-.67-2.05,.02-3.02,.74-1.04,1.8-1.66,2.99-2,1.27-.36,2.57-.62,3.87-.84,3.94-.66,7.88-1.28,11.82-1.9,3.36-.53,6.73-1.04,10.1-1.55,3.44-.53,6.88-1.08,10.33-1.57,1.86-.27,3.7-.67,5.6-.64,2.77,.05,5.32,.76,7.74,2.12,5.19,2.9,10.45,5.68,15.64,8.58,5.43,3.03,10.81,6.13,16.2,9.22,.38,.22,.64,.22,1.01-.02,4.04-2.55,8.1-5.08,12.15-7.61,.24-.15,.44-.36,.68-.48,.54-.27,1.08-.6,1.66-.71,2.04-.38,3.74,1.66,3.13,3.7-.33,1.08-1,1.96-1.72,2.81-1.67,1.98-3.64,3.66-5.64,5.3-2.66,2.17-5.32,4.34-8,6.5-1.45,1.16-3.11,1.34-4.84,.85-1.05-.3-2.06-.72-3.06-1.17-4.17-1.87-8.33-3.77-12.49-5.66-.09-.04-.18-.08-.3-.13Z"/>
    <path d="M119.6,143.34c-.02,6.02-4.91,10.87-10.93,10.84-5.99-.03-10.82-4.91-10.8-10.89,.02-6.01,4.9-10.84,10.91-10.82,5.99,.02,10.85,4.9,10.83,10.87Z"/>
    <path d="M93.17,44.66c-.01-5.99,4.82-10.85,10.82-10.87,6.03-.02,10.88,4.8,10.9,10.82,.02,6.01-4.83,10.88-10.84,10.89-6.01,.01-10.87-4.83-10.88-10.85Z"/>
  </g>
</svg>