<?xml version="1.0" encoding="UTF-8"?>
<svg id="Calque_2" data-name="Calque 2" xmlns="http://www.w3.org/2000/svg" viewBox="0 0 556.81 36.42">
  <defs>
    <style>
      .cls-1 {
        fill: none;
        stroke: #000;
        stroke-miterlimit: 10;
      }

      .cls-2 {
        font-family: TwCenMT-CondensedExtraBold, 'Tw Cen MT Condensed Extra Bold';
        font-size: 11.18px;
        font-weight: 700;
      }

      .cls-3 {
        fill: #cdeebb;
        opacity: .37;
        stroke-width: 0px;
      }
    </style>
  </defs>
  <g id="Calque_19" data-name="Calque 19">
    <rect class="cls-3" width="556.81" height="36.42"/>
    <g>
      <line class="cls-1" x1="2.22" y1="11.01" x2="2.22" y2="7.1"/>
      <line class="cls-1" x1="6.42" y1="11.01" x2="6.42" y2="7.1"/>
      <line class="cls-1" x1="10.78" y1="11.01" x2="10.78" y2="7.1"/>
      <line class="cls-1" x1="15.2" y1="11.01" x2="15.2" y2="7.1"/>
      <line class="cls-1" x1="20.22" y1="11.2" x2="20.22" y2="7.1"/>
      <line class="cls-1" x1="24.44" y1="11.01" x2="24.44" y2="7.1"/>
      <line class="cls-1" x1="28.9" y1="11.01" x2="28.9" y2="7.1"/>
      <line class="cls-1" x1="33.1" y1="11.01" x2="33.1" y2="7.1"/>
      <line class="cls-1" x1="37.46" y1="11.01" x2="37.46" y2="7.1"/>
      <line class="cls-1" x1="42.63" y1="14.97" x2="42.63" y2="7.1"/>
      <line class="cls-1" x1="46.91" y1="11.01" x2="46.91" y2="7.1"/>
      <line class="cls-1" x1="51.11" y1="11.01" x2="51.11" y2="7.1"/>
      <line class="cls-1" x1="55.46" y1="11.01" x2="55.46" y2="7.1"/>
      <line class="cls-1" x1="59.88" y1="11.01" x2="59.88" y2="7.1"/>
      <line class="cls-1" x1="64.91" y1="11.2" x2="64.91" y2="7.1"/>
      <line class="cls-1" x1="69.12" y1="11.01" x2="69.12" y2="7.1"/>
      <line class="cls-1" x1="73.59" y1="11.01" x2="73.59" y2="7.1"/>
      <line class="cls-1" x1="77.79" y1="11.01" x2="77.79" y2="7.1"/>
      <line class="cls-1" x1="82.14" y1="11.01" x2="82.14" y2="7.1"/>
      <line class="cls-1" x1="87.31" y1="14.97" x2="87.31" y2="7.1"/>
      <line class="cls-1" x1="91.68" y1="10.98" x2="91.68" y2="7.08"/>
      <line class="cls-1" x1="95.88" y1="10.98" x2="95.88" y2="7.08"/>
      <line class="cls-1" x1="100.23" y1="10.98" x2="100.23" y2="7.08"/>
      <line class="cls-1" x1="105.32" y1="10.98" x2="105.32" y2="7.08"/>
      <line class="cls-1" x1="109.68" y1="11.17" x2="109.68" y2="7.08"/>
      <line class="cls-1" x1="113.89" y1="10.98" x2="113.89" y2="7.08"/>
      <line class="cls-1" x1="118.36" y1="10.98" x2="118.36" y2="7.08"/>
      <line class="cls-1" x1="122.56" y1="10.98" x2="122.56" y2="7.08"/>
      <line class="cls-1" x1="127.64" y1="10.98" x2="127.64" y2="7.08"/>
      <line class="cls-1" x1="132.09" y1="14.94" x2="132.09" y2="7.08"/>
      <line class="cls-1" x1="136.49" y1="10.98" x2="136.49" y2="7.08"/>
      <line class="cls-1" x1="140.69" y1="10.98" x2="140.69" y2="7.08"/>
      <line class="cls-1" x1="145.04" y1="10.98" x2="145.04" y2="7.08"/>
      <line class="cls-1" x1="150.04" y1="10.98" x2="150.04" y2="7.08"/>
      <line class="cls-1" x1="154.49" y1="11.17" x2="154.49" y2="7.08"/>
      <line class="cls-1" x1="158.7" y1="10.98" x2="158.7" y2="7.08"/>
      <line class="cls-1" x1="163.17" y1="10.98" x2="163.17" y2="7.08"/>
      <line class="cls-1" x1="167.37" y1="10.98" x2="167.37" y2="7.08"/>
      <line class="cls-1" x1="172.47" y1="10.98" x2="172.47" y2="7.08"/>
      <line class="cls-1" x1="176.89" y1="14.94" x2="176.89" y2="7.08"/>
      <line class="cls-1" x1="181.19" y1="10.98" x2="181.19" y2="7.08"/>
      <line class="cls-1" x1="185.39" y1="10.98" x2="185.39" y2="7.08"/>
      <line class="cls-1" x1="190.47" y1="10.98" x2="190.47" y2="7.08"/>
      <line class="cls-1" x1="194.74" y1="10.98" x2="194.74" y2="7.08"/>
      <line class="cls-1" x1="199.19" y1="11.17" x2="199.19" y2="7.08"/>
      <line class="cls-1" x1="203.4" y1="10.98" x2="203.4" y2="7.08"/>
      <line class="cls-1" x1="207.87" y1="10.98" x2="207.87" y2="7.08"/>
      <line class="cls-1" x1="212.84" y1="10.98" x2="212.84" y2="7.08"/>
      <line class="cls-1" x1="217.17" y1="10.98" x2="217.17" y2="7.08"/>
      <line class="cls-1" x1="221.6" y1="14.94" x2="221.6" y2="7.08"/>
      <line class="cls-1" x1="225.87" y1="10.98" x2="225.87" y2="7.08"/>
      <line class="cls-1" x1="230.07" y1="10.98" x2="230.07" y2="7.08"/>
      <line class="cls-1" x1="235.19" y1="11.08" x2="235.19" y2="7.17"/>
      <line class="cls-1" x1="239.43" y1="10.98" x2="239.43" y2="7.08"/>
      <line class="cls-1" x1="243.87" y1="11.17" x2="243.87" y2="7.08"/>
      <line class="cls-1" x1="248.09" y1="10.98" x2="248.09" y2="7.08"/>
      <line class="cls-1" x1="252.55" y1="10.98" x2="252.55" y2="7.08"/>
      <line class="cls-1" x1="257.56" y1="10.98" x2="257.56" y2="7.08"/>
      <line class="cls-1" x1="261.85" y1="10.98" x2="261.85" y2="7.08"/>
      <line class="cls-1" x1="266.28" y1="14.94" x2="266.28" y2="7.08"/>
      <line class="cls-1" x1="270.57" y1="10.95" x2="270.57" y2="7.05"/>
      <line class="cls-1" x1="274.77" y1="10.95" x2="274.77" y2="7.05"/>
      <line class="cls-1" x1="279.87" y1="10.95" x2="279.87" y2="7.05"/>
      <line class="cls-1" x1="284.22" y1="10.95" x2="284.22" y2="7.05"/>
      <line class="cls-1" x1="288.57" y1="11.15" x2="288.57" y2="7.05"/>
      <line class="cls-1" x1="292.79" y1="10.95" x2="292.79" y2="7.05"/>
      <line class="cls-1" x1="298.04" y1="10.98" x2="298.04" y2="7.08"/>
      <line class="cls-1" x1="302.3" y1="10.98" x2="302.3" y2="7.08"/>
      <line class="cls-1" x1="306.55" y1="10.95" x2="306.55" y2="7.05"/>
      <line class="cls-1" x1="310.98" y1="14.91" x2="310.98" y2="7.05"/>
      <line class="cls-1" x1="315.4" y1="10.95" x2="315.4" y2="7.05"/>
      <line class="cls-1" x1="320.49" y1="10.95" x2="320.49" y2="7.05"/>
      <line class="cls-1" x1="324.64" y1="10.95" x2="324.64" y2="7.05"/>
      <line class="cls-1" x1="328.96" y1="10.95" x2="328.96" y2="7.05"/>
      <line class="cls-1" x1="333.4" y1="11.15" x2="333.4" y2="7.05"/>
      <line class="cls-1" x1="337.62" y1="10.95" x2="337.62" y2="7.05"/>
      <line class="cls-1" x1="342.64" y1="10.95" x2="342.64" y2="7.05"/>
      <line class="cls-1" x1="347.06" y1="10.95" x2="347.06" y2="7.05"/>
      <line class="cls-1" x1="351.38" y1="10.95" x2="351.38" y2="7.05"/>
      <line class="cls-1" x1="355.81" y1="14.91" x2="355.81" y2="7.05"/>
      <line class="cls-1" x1="360.04" y1="10.95" x2="360.04" y2="7.05"/>
      <line class="cls-1" x1="365.02" y1="10.95" x2="365.02" y2="7.05"/>
      <line class="cls-1" x1="369.45" y1="10.95" x2="369.45" y2="7.05"/>
      <line class="cls-1" x1="373.6" y1="10.95" x2="373.6" y2="7.05"/>
      <line class="cls-1" x1="378.04" y1="11.15" x2="378.04" y2="7.05"/>
      <line class="cls-1" x1="383.23" y1="10.95" x2="383.23" y2="7.05"/>
      <line class="cls-1" x1="387.7" y1="10.95" x2="387.7" y2="7.05"/>
      <line class="cls-1" x1="391.9" y1="10.95" x2="391.9" y2="7.05"/>
      <line class="cls-1" x1="396.02" y1="10.95" x2="396.02" y2="7.05"/>
      <line class="cls-1" x1="400.45" y1="14.91" x2="400.45" y2="7.05"/>
      <line class="cls-1" x1="405.46" y1="10.95" x2="405.46" y2="7.05"/>
      <line class="cls-1" x1="409.66" y1="10.95" x2="409.66" y2="7.05"/>
      <line class="cls-1" x1="414.02" y1="10.95" x2="414.02" y2="7.05"/>
      <line class="cls-1" x1="418.36" y1="10.95" x2="418.36" y2="7.05"/>
      <line class="cls-1" x1="422.81" y1="11.15" x2="422.81" y2="7.05"/>
      <line class="cls-1" x1="428.13" y1="10.95" x2="428.13" y2="7.05"/>
      <line class="cls-1" x1="432.14" y1="10.95" x2="432.14" y2="7.05"/>
      <line class="cls-1" x1="436.52" y1="10.95" x2="436.52" y2="7.05"/>
      <line class="cls-1" x1="440.89" y1="10.95" x2="440.89" y2="7.05"/>
      <line class="cls-1" x1="445.32" y1="14.91" x2="445.32" y2="7.05"/>
      <line class="cls-1" x1="450.38" y1="10.93" x2="450.38" y2="7.02"/>
      <line class="cls-1" x1="454.58" y1="10.93" x2="454.58" y2="7.02"/>
      <line class="cls-1" x1="458.94" y1="10.93" x2="458.94" y2="7.02"/>
      <line class="cls-1" x1="463.34" y1="11.02" x2="463.34" y2="7.12"/>
      <line class="cls-1" x1="468.38" y1="11.12" x2="468.38" y2="7.02"/>
      <line class="cls-1" x1="472.6" y1="10.93" x2="472.6" y2="7.02"/>
      <line class="cls-1" x1="477.06" y1="10.93" x2="477.06" y2="7.02"/>
      <line class="cls-1" x1="481.26" y1="10.93" x2="481.26" y2="7.02"/>
      <line class="cls-1" x1="485.72" y1="10.93" x2="485.72" y2="7.02"/>
      <line class="cls-1" x1="490.79" y1="14.89" x2="490.79" y2="7.02"/>
      <line class="cls-1" x1="495.12" y1="10.93" x2="495.12" y2="7.02"/>
      <line class="cls-1" x1="499.32" y1="10.93" x2="499.32" y2="7.02"/>
      <line class="cls-1" x1="503.68" y1="10.93" x2="503.68" y2="7.02"/>
      <line class="cls-1" x1="508.09" y1="10.93" x2="508.09" y2="7.02"/>
      <line class="cls-1" x1="513.12" y1="11.12" x2="513.12" y2="7.02"/>
      <line class="cls-1" x1="517.34" y1="10.93" x2="517.34" y2="7.02"/>
      <line class="cls-1" x1="521.8" y1="10.93" x2="521.8" y2="7.02"/>
      <line class="cls-1" x1="526" y1="10.93" x2="526" y2="7.02"/>
      <line class="cls-1" x1="530.43" y1="11.02" x2="530.43" y2="7.12"/>
      <line class="cls-1" x1="535.53" y1="14.89" x2="535.53" y2="7.02"/>
      <line class="cls-1" x1="539.79" y1="10.97" x2="539.79" y2="7.07"/>
      <line class="cls-1" x1="544.26" y1="10.97" x2="544.26" y2="7.07"/>
      <line class="cls-1" x1="548.45" y1="10.97" x2="548.45" y2="7.07"/>
      <line class="cls-1" x1="552.88" y1="11.07" x2="552.88" y2="7.17"/>
    </g>
    <g>
      <text class="cls-2" transform="translate(31.02 31.13)"><tspan x="0" y="0">1910</tspan></text>
      <text class="cls-2" transform="translate(75.33 31.13)"><tspan x="0" y="0">1920</tspan></text>
      <text class="cls-2" transform="translate(120.54 31.32)"><tspan x="0" y="0">1930</tspan></text>
      <text class="cls-2" transform="translate(164.82 31.51)"><tspan x="0" y="0">1940</tspan></text>
      <text class="cls-2" transform="translate(209.75 31.13)"><tspan x="0" y="0">1950</tspan></text>
      <text class="cls-2" transform="translate(254.41 31.13)"><tspan x="0" y="0">1960</tspan></text>
      <text class="cls-2" transform="translate(299.34 31.13)"><tspan x="0" y="0">1970</tspan></text>
      <text class="cls-2" transform="translate(344.05 31.13)"><tspan x="0" y="0">1980</tspan></text>
      <text class="cls-2" transform="translate(388.84 31.13)"><tspan x="0" y="0">1990</tspan></text>
      <text class="cls-2" transform="translate(433.56 31.32)"><tspan x="0" y="0">2000</tspan></text>
      <text class="cls-2" transform="translate(479.11 31.32)"><tspan x="0" y="0">2010</tspan></text>
      <text class="cls-2" transform="translate(523.51 31.32)"><tspan x="0" y="0">2020</tspan></text>
    </g>
  </g>
</svg>