<?xml version="1.0" encoding="UTF-8"?>
<svg id="Calque_2" data-name="Calque 2" xmlns="http://www.w3.org/2000/svg" viewBox="0 0 177.93 208.42">
  <defs>
    <style>
      .cls-1 {
        fill: #f7931e;
      }
    </style>
  </defs>
  <g id="Calque_4" data-name="Calque 4">
    <path class="cls-1" d="M86.3,208.42c66.47-36.82,101.14-96.46,89.36-139.91-8.62-31.78-35.28-51.11-35.28-51.11C118.68,1.66,96.54,.29,91.66,.08,63.6-1.13,33.5,11.22,15.83,35.83,.56,57.09,.07,79.82,0,87.91c-.58,70.88,80.09,117.07,86.3,120.51Z"/>
    <g>
      <path d="M155.38,117.02v-50l-15.66-.38s-6.41-4.72-16.98-11.32c-10.57-6.6-23.77-8.49-46.22-7.36-22.45,1.13-41.7,19.06-41.7,19.06h-12.26v50h-4.34v13.4H159.91v-13.21l-4.53-.19Zm-103.39-.19h-12.07v-16.04h12.07v16.04Zm54.34,0h-34.34v-44.9s6.23-1.32,15.57-2.08c9.34-.75,18.77,3.4,18.77,3.4v43.58Zm-2.64-51.13c-6.6-1.89-8.49-1.7-24.34-1.36-15.85,.34-29.62,12.68-29.62,12.68l-7.36-8.68c4.34-3.82,12.34-9.88,23.96-13.58,3.31-1.05,14.28-4.26,28.49-2.64,19.09,2.18,32.26,11.72,37.92,16.41l-7.36,8.49s-15.09-9.43-21.7-11.32Zm33.58,51.13h-10.94l-.75-16.04h12.64l-.94,16.04Z"/>
      <path d="M79.19,81.58l-2.2,2.48v5.19l1.32,1.89,1.23,.53h3.27l1.01-1.13v-4.18l-2.89-.06v1.6h1.32l-.13,1.76s-1.92,.79-2.3,.31c-.38-.47-.79-.94-.79-.94v-4.59l.79-.94h1.73l.69,.79-.13,.97,1.7-.09v-1.67l-1.13-1.6-3.49-.31Z"/>
      <polygon points="87.9 85.64 86.36 81.8 84.34 81.8 86.77 87.69 86.7 91.68 89.06 91.68 89.06 88 91.48 81.8 89.5 81.8 87.9 85.64"/>
      <polygon points="93.97 85.89 95.66 91.4 97.46 91.4 99.16 85.83 99.44 91.4 101.26 91.4 101.26 81.8 98.21 81.99 96.45 87.78 95.16 81.8 92.11 81.8 91.86 91.21 93.84 91.18 93.97 85.89"/>
    </g>
  </g>
</svg>