<?xml version="1.0" encoding="UTF-8"?>
<svg id="Calque_2" data-name="Calque 2" xmlns="http://www.w3.org/2000/svg" viewBox="0 0 177.93 208.42">
  <defs>
    <style>
      .cls-1 {
        fill: #0071bc;
      }
    </style>
  </defs>
  <g id="Calque_5" data-name="Calque 5">
    <path class="cls-1" d="M86.3,208.42c66.47-36.82,101.14-96.46,89.36-139.91-8.62-31.78-35.28-51.11-35.28-51.11C118.68,1.66,96.54,.29,91.66,.08,63.6-1.13,33.5,11.22,15.83,35.83,.56,57.09,.07,79.82,0,87.91c-.58,70.88,80.09,117.07,86.3,120.51Z"/>
    <g>
      <path d="M36.68,87.08c2.22,.55,4.26-.15,6.28-.91,8.81-3.32,17.61-6.68,26.43-9.98,2.75-1.03,4.39-.24,5.55,2.47,.96,2.25,1.95,4.5,2.93,6.74,.9,2.07,1.81,4.14,2.75,6.27-11.03,6.67-21.94,13.27-33.29,20.13,1.47,.8,2.62,1.83,3.9,2.04,2.57,.41,5.27,.79,7.82,.44,4.89-.68,9.73-1.76,14.54-2.9,10.3-2.44,20.28-6.32,31-6.82,1.12-.05,1.63-.82,1.4-1.79-.29-1.26-.64-2.59-1.32-3.67-7.51-11.96-15.08-23.88-22.66-35.8-2.44-3.84-5.38-4.76-9.45-2.65-11.33,5.86-22.61,11.8-33.84,17.86-1.62,.88-3.09,2.36-4.14,3.9-1.4,2.06-.33,4.08,2.1,4.68Z"/>
      <path d="M147.43,122.6c-12.15-7.08-25.17-9.59-39.01-6.82-7.47,1.5-14.88,3.31-22.26,5.2-13.16,3.38-26.4,5.26-39.98,3.01-8.34-1.38-16.27-3.89-23.64-8.07-1.61-.92-3.15-1.96-4.94-3.08,.23,.5,.34,.77,.49,1.03,2.56,4.68,5.94,8.69,10.02,12.1,8.22,6.89,17.84,10.19,28.44,10.57,13.49,.49,26.71-1.13,39.46-5.81,5.98-2.2,12.09-4.01,18.49-4.34,10.86-.57,21.69,.04,32.49,1.18,3.04,.32,6.08,.75,9.11,1.13,.05-.14,.11-.27,.16-.41-2.94-1.9-5.8-3.92-8.82-5.68Z"/>
      <path d="M124.96,98.53c8.35-.03,15.18-6.86,15.18-15.18,0-8.34-6.85-15.17-15.18-15.16-8.4,0-15.15,6.77-15.15,15.16,0,8.38,6.81,15.2,15.15,15.17Z"/>
    </g>
  </g>
</svg>