<?xml version="1.0" encoding="UTF-8"?>
<svg id="Calque_2" data-name="Calque 2" xmlns="http://www.w3.org/2000/svg" viewBox="0 0 177.93 208.42">
  <defs>
    <style>
      .cls-1 {
        fill: #fbb03b;
      }
    </style>
  </defs>
  <g id="Calque_6" data-name="Calque 6">
    <path class="cls-1" d="M86.3,208.42c66.47-36.82,101.14-96.46,89.36-139.91-8.62-31.78-35.28-51.11-35.28-51.11C118.68,1.66,96.54,.29,91.66,.08,63.6-1.13,33.5,11.22,15.83,35.83,.56,57.09,.07,79.82,0,87.91c-.58,70.88,80.09,117.07,86.3,120.51Z"/>
    <g>
      <path d="M96.82,105.23c-1.89-3.17-4.61-5.45-7.75-7.28-.77-.45-1.41-.98-1.84-1.75-.49-.87-1.25-1.44-2.2-1.67-.63-.15-1.29-.14-1.94-.18-.97-.06-1.97,.07-2.89-.16-3.05-.75-6.12-1.35-9.25-1.67-1.49-.15-2.97-.25-4.39,.45-3.47,1.7-4.71,5.54-2.85,8.9,.85,1.53,2.02,2.78,3.53,3.63,1.66,.94,3.42,1.7,5.29,2.62-.58,2.01-1.15,4.16-1.82,6.28-1.76,5.57-4.66,10.42-8.95,14.44-3.1,2.91-6.38,5.58-9.86,8-2.79,1.93-5.56,3.88-8.78,5.07-1.72,.63-3.39,1.38-5.08,2.08-.21,.09-.4,.22-.6,.33,3.73-.22,7.36-.79,10.95-1.67,5.93-1.44,11.58-3.59,16.83-6.71,4.75-2.83,8.72-6.62,12.5-10.6,2.48-2.63,4.19-5.8,5.79-9.01,.79-1.58,1.56-3.16,2.34-4.74,.1,.04,.16,.05,.21,.08,.09,.05,.17,.12,.26,.18,1.4,1.06,2.11,2.55,2.52,4.2,.94,3.8,1.25,7.66,.85,11.54-.47,4.67-1.11,9.32-1.67,13.98-.16,1.31-.29,2.63-.43,3.95,.15-.05,.2-.11,.24-.18,1.61-2.91,3.21-5.83,4.83-8.74,4.32-7.78,6.53-16.07,6.03-25.02-.13-2.28-.67-4.4-1.84-6.36Z"/>
      <path d="M63.88,64.52c3.06-.18,6.03,.4,9.01,1.01,1.83,.38,3.67,.82,5.52,.97,3.46,.29,5.86-1.85,6.19-5.31,.03-.28-.02-.59-.13-.85-.59-1.43-1.54-2.6-2.74-3.57-.19-.15-.44-.26-.67-.33-2.81-.84-5.69-1.34-8.62-1.54-7.69-.5-14.82,1.42-21.53,5.07-3.8,2.06-7.07,4.86-10.46,7.51-2.49,1.94-4.82,4.03-6.68,6.6-.95,1.32-1.76,2.74-2.63,4.11,.06,.05,.12,.1,.19,.15,.3-.17,.62-.32,.9-.51,1.35-.93,2.67-1.91,4.04-2.82,5.52-3.65,11.39-6.61,17.71-8.6,3.22-1.01,6.52-1.69,9.9-1.89Z"/>
      <path d="M140.42,69.9c-5.92,1.46-11.84,2.95-17.72,4.57-5.09,1.4-10.12,3.01-15.19,4.51-2.93,.87-5.83,1.84-8.51,3.33-1.31,.73-2.61,1.6-2.71,3.37-.03,.5-.1,1.01-.09,1.51,.06,2.83,1.54,4.49,4.35,4.92,2,.3,3.85-.24,5.64-1.04,2.79-1.24,5.57-2.5,8.31-3.84,10.3-5.04,20.11-10.96,30-16.73,.59-.34,1.09-.82,1.64-1.24-.04-.08-.08-.16-.12-.24-1.87,.29-3.77,.44-5.6,.89Z"/>
      <path d="M107.07,64.97c5.51-1.42,9.16-6.94,8.15-12.31-1.18-6.24-7.26-10.26-13.46-8.9-5.01,1.1-8.78,5.63-8.8,10.54,.02,.4,0,.8,.06,1.2,.93,6.87,7.36,11.2,14.04,9.48Z"/>
      <path d="M158.71,56.9c-2.8,0-5.05,2.26-5.04,5.07,.01,2.81,2.29,5.06,5.08,5.04,2.76-.02,5.02-2.29,5.02-5.05,0-2.79-2.27-5.06-5.07-5.06Z"/>
    </g>
  </g>
</svg>