<?xml version="1.0" encoding="UTF-8"?>
<svg id="Calque_2" data-name="Calque 2" xmlns="http://www.w3.org/2000/svg" viewBox="0 0 214.69 202.6">
  <g id="Calque_8" data-name="Calque 8">
    <g>
      <path d="M3.93,49.21c33.1,16.91,66.19,33.84,99.26,50.79,2.68,1.37,5.14,1.49,7.84,.07,5.95-3.14,11.97-6.16,17.96-9.22,27.01-13.82,54.02-27.64,81.03-41.46,2.32-1.19,4.55-2.47,4.36-5.41-.19-2.88-2.38-4.02-4.89-4.98C176.73,26.42,143.99,13.81,111.24,1.22c-1.18-.45-2.42-.78-3.81-1.22-1.25,.35-2.61,.62-3.87,1.1C70.54,13.78,37.53,26.49,4.49,39.17c-2.36,.9-4.23,2.1-4.47,4.68-.26,2.76,1.6,4.19,3.91,5.37Z"/>
      <path d="M210.58,86.39c-6.37-2.55-12.76-5.05-19.08-7.69-1.73-.72-3.04-.56-4.67,.29-24.98,12.85-50.03,25.59-74.99,38.47-3.35,1.73-6.21,1.63-9.45-.09-7.66-4.06-15.44-7.94-23.17-11.9-16.93-8.68-33.88-17.32-50.76-26.08-2.3-1.19-4.18-1.32-6.57-.27-5.46,2.39-11.05,4.54-16.62,6.7-2.53,.98-4.59,2.28-4.81,5.09-.24,2.98,1.8,4.46,4.26,5.79,32.83,17.75,65.66,35.51,98.42,53.38,3.33,1.82,6.04,1.82,9.34,.01,19.81-10.88,39.7-21.62,59.58-32.39,12.85-6.96,25.71-13.91,38.58-20.84,2.28-1.23,4.03-2.71,3.93-6.12-.1-1.83-1.61-3.39-3.99-4.34Z"/>
      <path d="M210.63,136.26c-5.23-2.19-10.54-4.24-15.72-6.53-1.82-.8-3.18-.69-4.91,.2-25.91,13.35-51.88,26.6-77.77,39.99-3.61,1.87-6.64,1.8-10.25-.08-25.96-13.46-52.01-26.78-78.08-40.05-1.07-.55-2.86-.55-4.02-.12-4.96,1.85-9.78,4.01-14.7,5.95-2.52,1-4.56,2.27-4.78,5.1-.22,2.94,1.63,4.55,4.1,5.91,32.9,18.16,65.8,36.32,98.64,54.57,3.29,1.83,6.03,1.86,9.34,.02,23.63-13.19,47.33-26.25,71.01-39.35,9.11-5.04,18.21-10.11,27.34-15.13,2.17-1.19,3.81-2.66,3.87-5.21,.05-2.38-1.2-4.09-4.05-5.29Z"/>
    </g>
  </g>
</svg>