<?xml version="1.0" encoding="UTF-8"?>
<svg id="Calque_2" data-name="Calque 2" xmlns="http://www.w3.org/2000/svg" viewBox="0 0 177.93 208.42">
  <defs>
    <style>
      .cls-1 {
        fill: #662d91;
      }
    </style>
  </defs>
  <g id="Calque_7" data-name="Calque 7">
    <path class="cls-1" d="M86.3,208.42c66.47-36.82,101.14-96.46,89.36-139.91-8.62-31.78-35.28-51.11-35.28-51.11C118.68,1.66,96.54,.29,91.66,.08,63.6-1.13,33.5,11.22,15.83,35.83,.56,57.09,.07,79.82,0,87.91c-.58,70.88,80.09,117.07,86.3,120.51Z"/>
    <path d="M99.33,68.56c4.72,5.43,9.03,10.26,13.18,15.22,2.49,2.97,3.97,6.51,4.82,10.29,.88,3.89-.76,6.33-4.69,7.12-5.92,1.2-11.83,2.44-17.76,3.62-1.24,.25-2.51,.34-4.01,.54,.28,.69,.51,1.36,.82,1.99,4.43,9.1,8.87,18.18,13.3,27.28,1.85,3.8,.99,7.24-2.3,9.28-3.42,2.12-6.75,1.16-8.67-2.68-3.95-7.91-7.81-15.87-11.7-23.81-.62-1.26-1.22-2.53-2.02-4.2-1.14,2.69-2.24,5.03-3.12,7.44-2.52,6.92-4.99,13.86-7.41,20.82-1.55,4.44-4.04,6.06-7.73,4.85-3.95-1.28-5.74-4.84-4.4-8.99,4.12-12.76,8.77-25.3,14.64-37.39,3.8-7.83,7.03-15.93,10.95-23.7,3.77-7.48,8.03-14.75,14.01-20.77,7.75-7.81,17.39-11.65,28.19-12.89,2.45-.28,4.34,.73,5.55,2.86,1.98,3.46,.34,6.67-3.62,7.16-7.67,.94-14.9,3.13-20.82,8.29-2.69,2.35-4.93,5.21-7.21,7.66Zm2.12,17.79c-1.98,2.69-3.72,5.07-5.81,7.91,3.67-.77,6.71-1.4,10.23-2.13-1.58-2.06-2.89-3.77-4.42-5.78Z"/>
    <path d="M115.16,60.02c4.81-.06,8.75,3.74,8.86,8.56,.11,4.89-3.78,8.91-8.67,8.96-4.9,.05-8.84-3.86-8.86-8.77-.02-4.79,3.84-8.69,8.67-8.75Z"/>
  </g>
</svg>