<?xml version="1.0" encoding="UTF-8"?>
<svg id="Calque_2" data-name="Calque 2" xmlns="http://www.w3.org/2000/svg" viewBox="0 0 294.33 209.74">
  <defs>
    <style>
      .cls-1, .cls-2 {
        fill: #333;
      }

      .cls-3 {
        fill: #1a1a1a;
      }

      .cls-3, .cls-2 {
        stroke: #000;
        stroke-miterlimit: 10;
        stroke-width: 1.57px;
      }
    </style>
  </defs>
  <g id="Calque_9" data-name="Calque 9">
    <rect x="33.98" y="1.1" width="260.35" height="21.43" rx="5.96" ry="5.96"/>
    <rect x="0" y="0" width="23.63" height="23.63" rx="6.89" ry="6.89"/>
    <rect class="cls-3" x="62.32" y="46.97" width="201.61" height="12.8" rx="4.09" ry="4.09"/>
    <rect class="cls-1" x="41.52" y="45.9" width="14.93" height="14.93" rx="4.77" ry="4.77"/>
    <rect class="cls-2" x="62.32" y="73.22" width="201.61" height="12.8" rx="4.09" ry="4.09"/>
    <rect class="cls-1" x="41.52" y="72.15" width="14.93" height="14.93" rx="4.77" ry="4.77"/>
    <rect x="33.98" y="105.87" width="260.35" height="21.43" rx="5.96" ry="5.96"/>
    <rect x="0" y="104.77" width="23.63" height="23.63" rx="6.89" ry="6.89"/>
    <rect class="cls-2" x="62.32" y="143.07" width="201.61" height="12.8" rx="4.09" ry="4.09"/>
    <rect class="cls-1" x="41.52" y="142.01" width="14.93" height="14.93" rx="4.77" ry="4.77"/>
    <rect class="cls-2" x="62.32" y="169.47" width="201.61" height="12.8" rx="4.09" ry="4.09"/>
    <rect class="cls-1" x="41.52" y="168.41" width="14.93" height="14.93" rx="4.77" ry="4.77"/>
    <rect class="cls-2" x="61.53" y="195.88" width="201.61" height="12.8" rx="4.09" ry="4.09"/>
    <rect class="cls-1" x="40.73" y="194.81" width="14.93" height="14.93" rx="4.77" ry="4.77"/>
  </g>
</svg>