<?xml version="1.0" encoding="UTF-8"?>
<svg id="Calque_2" data-name="Calque 2" xmlns="http://www.w3.org/2000/svg" viewBox="0 0 223.77 244.84">
  <g id="Calque_11" data-name="Calque 11">
    <g>
      <path d="M223.7,106.61c.24-7.76-1.13-15.27-3.08-22.7C207.97,35.66,162.08-4.83,101.23,.47c-15.27,1.33-29.77,5.72-43,13.51C21.32,35.7,1.84,68.22,.01,111.37c-.27,6.4,4.64,11.26,11.36,11.52,7.19,.27,11.4-3.4,11.9-10.35,.29-4.15,.42-8.33,.97-12.44,2.34-17.28,9.15-32.67,20.63-45.64,22.96-25.94,51.55-36.51,85.54-29.54,45.4,9.31,78.47,54.74,68.94,105.03-6.73,35.5-33.8,63.29-68.91,70.55-3.37,.7-6.81,1.04-10.49,1.58-.03-7.1-.05-13.76-.08-20.83-17.64,10.8-34.95,21.39-52.45,32.11,.62,.42,.96,.69,1.33,.91,10.12,6.1,20.26,12.19,30.37,18.3,6.74,4.07,13.45,8.18,20.17,12.27,.26,0,.52,0,.77,0-.02-6.35-.05-12.71-.07-19.1,1.21-.17,2.09-.34,2.99-.41,10.94-.83,21.52-3.35,31.6-7.65,31.92-13.62,53.39-37.13,64.48-70.25,2.48-7.4,4.23-15.02,4.62-22.84,.29-5.97-.16-11.98,.03-17.96Z"/>
      <path d="M125.84,37.62c-7.92-2.18-13.61,2.41-13.62,10.46-.02,10.31-.09,20.63-.14,30.94-.05,10.18-.04,20.37-.18,30.55-.05,3.59,1.03,6.5,3.33,9.02,7.03,7.67,14.02,15.38,21.03,23.07,2.63,2.88,5.25,5.78,7.89,8.64,4,4.34,10.17,4.5,14.08,.38,4-4.21,4.1-11.31,.15-15.65-8.25-9.08-16.52-18.14-24.82-27.16-.99-1.07-1.47-2.12-1.46-3.68,.13-18.69,.21-37.39,.26-56.08,.02-5.39-2.29-9.34-6.52-10.51Z"/>
      <path d="M116.26,168.48c0,3.98,2.85,7.06,6.54,7.07,3.5,0,6.31-3.02,6.35-6.82,.03-4.06-2.71-7.14-6.39-7.2-3.48-.05-6.49,3.18-6.5,6.95Z"/>
      <path d="M72.4,104.98c-.04-3.93-2.85-6.9-6.51-6.85-3.64,.05-6.38,3.09-6.35,7.05,.03,3.85,2.94,6.95,6.52,6.93,3.52-.02,6.37-3.22,6.34-7.13Z"/>
      <path d="M80.3,69.25c3.7,.08,6.6-2.94,6.63-6.91,.04-4.02-2.74-7.05-6.47-7.06-3.53-.01-6.42,3.14-6.42,6.99,0,3.75,2.83,6.92,6.25,6.99Z"/>
      <path d="M80.02,153.53c3.59,.04,6.53-3.16,6.52-7.09-.01-4-2.86-7.02-6.57-6.96-3.43,.05-6.3,3.19-6.32,6.93-.02,3.79,2.93,7.09,6.36,7.13Z"/>
    </g>
  </g>
</svg>